<svg xmlns="http://www.w3.org/2000/svg" xmlns:xlink="http://www.w3.org/1999/xlink" viewBox="0 0 329.778 406.007"><defs><linearGradient id="a"><stop offset="0" stop-color="#c2c2c2"/><stop offset="1" stop-color="#9f9f9f"/></linearGradient><linearGradient gradientTransform="translate(-45.255 .354)" gradientUnits="userSpaceOnUse" y2="108.776" x2="658.458" y1="6.6" x1="660.067" id="b" xlink:href="#a"/></defs><g transform="translate(-399.134 -122.79)"><rect ry="7.014" y="122.791" x="399.134" height="406.007" width="329.778" fill="#eee"/><g transform="translate(43.778 191.042)"><rect width="82.49" height="90.47" x="398.758" y="178.747" ry="8.397" transform="rotate(-16.343)" fill="#9f9f9f"/><g transform="rotate(16.32 538.136 -184.897)" stroke="#fff" stroke-linecap="round" stroke-linejoin="round"><rect ry="4.596" y="1.65" x="547.186" height="115.966" width="107.834" fill="url(#b)" stroke-width="5.398"/><g stroke-width="13.071" color="#000" fill-rule="evenodd"><path style="isolation:auto;mix-blend-mode:normal;solid-color:#000;solid-opacity:1;marker:none" d="M270 107.362h491.106V557.36H270z" transform="translate(512.493 -6.33) scale(.17265)" overflow="visible" fill="#ccc"/><path style="isolation:auto;mix-blend-mode:normal;solid-color:#000;solid-opacity:1;marker:none" d="M270 107.362h491.106v210H270z" transform="translate(512.493 -6.33) scale(.17265)" overflow="visible" fill="#fff"/><path style="isolation:auto;mix-blend-mode:normal;solid-color:#000;solid-opacity:1;marker:none" d="m300 317.363 38.461-53.539 60.531-45.16 15.883 18.573 13.613-38.683 8.201-2.982L450 167.362l180 180" transform="translate(512.493 -6.33) scale(.17265)" overflow="visible" fill="#ccc" paint-order="stroke"/><path style="isolation:auto;mix-blend-mode:normal;solid-color:#000;solid-opacity:1;marker:none" d="M180 60a885.559 885.559 0 0 1 17.168 87.877l-22.064-7.16-46.112-29.416 5.324 46.426-1.615 24.787 10.053 30.377 73.185-11.756L300 180l-47.8-77.434-9.7 14.934-27.125-22.125Z" transform="translate(559.11 12.207) scale(.17265)" overflow="visible" fill="#b3b3b3" paint-order="stroke"/><path d="m420 347.363 81.9-74.43 18.505-9.68 23.651-44.19 25.944-21.7 180 180" style="isolation:auto;mix-blend-mode:normal;solid-color:#000;solid-opacity:1;marker:none" transform="translate(512.493 -6.33) scale(.17265)" overflow="visible" fill="#ccc" paint-order="stroke"/><path style="isolation:auto;mix-blend-mode:normal;solid-color:#000;solid-opacity:1;marker:none" d="m570 197.363 35.939 80.913v60.22l22.458 19.467a81.558 81.558 0 0 1 22.445-15.705c14.824-7.004 31.338-9.36 47.17-13.622 6.428-1.73 12.907-3.854 18.214-7.872a29.833 29.833 0 0 0 3.774-3.401h-30l-40.522-40.55-29.856-48.92-10.253 8.839z" transform="translate(512.493 -6.33) scale(.17265)" overflow="visible" fill="#b3b3b3" paint-order="stroke"/><path style="isolation:auto;mix-blend-mode:normal;solid-color:#000;solid-opacity:1;marker:none" d="M420 557.362c-.417-9.6-8.818-17.609 17.125-30.668 31.832-16.024 125.895-35.888 152.154-59.984 19.427-17.827-70.416-37.67-55.02-59.073 6.982-9.706 59.038-19.97 82.147-30.274 21.906-9.768 15.141-19.804 31.405-29.975 15.709-9.826 68.35-19.774 72.189-30.025-10.414 10.521-68.834 20.403-90 30-22.338 10.128-21.469 19.93-49.431 29.483-30.125 10.293-89.142 20.553-102.708 30.517-28.413 20.868 46.863 42.6 16.202 60-41.52 23.563-149.341 43.294-194.063 60-30.904 11.543-28.408 17.748-30 30" transform="translate(512.493 -6.33) scale(.17265)" overflow="visible" fill="#fff" paint-order="stroke"/></g></g></g><text y="412.125" x="562.007" style="line-height:1.25" xml:space="preserve" font-weight="400" font-size="32" font-family="sans-serif" fill="#767676"><tspan style="-inkscape-font-specification:'sans-serif Bold';text-align:center" y="412.125" x="562.007" font-weight="700" text-anchor="middle">NO POSTER</tspan><tspan style="-inkscape-font-specification:'sans-serif Bold';text-align:center" y="452.125" x="562.007" font-weight="700" text-anchor="middle">AVAILABLE</tspan></text></g></svg>
